<?xml version="1.0" encoding="UTF-8"?>
<svg xmlns="http://www.w3.org/2000/svg" xmlns:xlink="http://www.w3.org/1999/xlink" width="15px" height="15px" viewBox="0 0 15 15" version="1.1">
<g id="surface1">
<path style=" stroke:none;fill-rule:nonzero;fill:rgb(0%,0%,0%);fill-opacity:1;" d="M 8.824219 7.5 L 14.726562 1.601562 C 15.089844 1.234375 15.089844 0.640625 14.726562 0.273438 C 14.359375 -0.0898438 13.765625 -0.0898438 13.398438 0.273438 L 7.5 6.175781 L 1.601562 0.273438 C 1.234375 -0.0898438 0.640625 -0.0898438 0.273438 0.273438 C -0.0898438 0.640625 -0.0898438 1.234375 0.273438 1.601562 L 6.175781 7.5 L 0.273438 13.398438 C -0.0898438 13.765625 -0.0898438 14.359375 0.273438 14.726562 C 0.640625 15.089844 1.234375 15.089844 1.601562 14.726562 L 7.5 8.824219 L 13.398438 14.726562 C 13.765625 15.089844 14.359375 15.089844 14.726562 14.726562 C 15.089844 14.359375 15.089844 13.765625 14.726562 13.398438 Z M 8.824219 7.5 "/>
</g>
</svg>
