<?xml version="1.0" encoding="UTF-8"?>
<svg xmlns="http://www.w3.org/2000/svg" xmlns:xlink="http://www.w3.org/1999/xlink" width="15px" height="15px" viewBox="0 0 15 15" version="1.1">
<g id="surface1">
<path style=" stroke:none;fill-rule:nonzero;fill:rgb(0%,0%,0%);fill-opacity:1;" d="M 14.0625 6.5625 L 8.4375 6.5625 L 8.4375 0.9375 C 8.4375 0.417969 8.019531 0 7.5 0 C 6.980469 0 6.5625 0.417969 6.5625 0.9375 L 6.5625 6.5625 L 0.9375 6.5625 C 0.417969 6.5625 0 6.980469 0 7.5 C 0 8.019531 0.417969 8.4375 0.9375 8.4375 L 6.5625 8.4375 L 6.5625 14.0625 C 6.5625 14.582031 6.980469 15 7.5 15 C 8.019531 15 8.4375 14.582031 8.4375 14.0625 L 8.4375 8.4375 L 14.0625 8.4375 C 14.582031 8.4375 15 8.019531 15 7.5 C 15 6.980469 14.582031 6.5625 14.0625 6.5625 Z M 14.0625 6.5625 "/>
</g>
</svg>
